<svg width="342" height="310" viewBox="0 0 342 310" fill="none" xmlns="http://www.w3.org/2000/svg">
<g filter="url(#filter0_d_0_259)">
<rect x="12" y="6" width="153" height="139" rx="2.4" fill="white"/>
</g>
<rect x="21.5376" y="15.5862" width="135.514" height="119.828" fill="#FAFAFA" stroke="#E5E9EA" stroke-width="0.6"/>
<rect x="21.5376" y="75.5" width="135.514" height="0.468076" fill="#E5E9EA"/>
<rect x="21.5376" y="86.7338" width="135.514" height="0.468076" fill="#E5E9EA"/>
<rect x="21.5376" y="97.9677" width="135.514" height="0.468076" fill="#E5E9EA"/>
<rect x="21.5376" y="109.201" width="135.514" height="0.468076" fill="#E5E9EA"/>
<rect x="21.5376" y="30.5646" width="135.514" height="0.468076" fill="#E5E9EA"/>
<rect x="21.5376" y="19.3308" width="135.514" height="0.468076" fill="#E5E9EA"/>
<rect x="21.5376" y="41.7985" width="135.514" height="0.468076" fill="#E5E9EA"/>
<rect x="21.5376" y="53.0323" width="135.514" height="0.468076" fill="#E5E9EA"/>
<rect x="21.5376" y="64.2661" width="135.514" height="0.468076" fill="#E5E9EA"/>
<rect x="21.5376" y="120.435" width="135.514" height="0.468076" fill="#E5E9EA"/>
<rect x="21.5376" y="131.669" width="135.514" height="0.468076" fill="#E5E9EA"/>
<path d="M25.1143 75.5H43.3948V102.457C43.3948 104.114 42.0516 105.457 40.3948 105.457H28.1143C26.4574 105.457 25.1143 104.114 25.1143 102.457V75.5Z" fill="#242D52"/>
<path d="M25.1143 75.5H43.3948V94.9677C43.3948 96.6245 42.0516 97.9677 40.3948 97.9677H28.1143C26.4574 97.9677 25.1143 96.6245 25.1143 94.9677V75.5Z" fill="#F3603C"/>
<path d="M52.9326 75.3428H71.2131V54.9338C71.2131 53.277 69.87 51.9338 68.2131 51.9338H55.9326C54.2758 51.9338 52.9326 53.277 52.9326 54.9338V75.3428Z" fill="#F3603C"/>
<path d="M52.9326 75.3428H71.2131V106.052C71.2131 107.708 69.87 109.052 68.2131 109.052H55.9326C54.2758 109.052 52.9326 107.708 52.9326 106.052V75.3428Z" fill="#242D52"/>
<path d="M107.376 75.4999H125.657V33.3648C125.657 31.708 124.314 30.3648 122.657 30.3648H110.376C108.72 30.3648 107.376 31.708 107.376 33.3648V75.4999Z" fill="#242D52"/>
<path d="M107.376 75.4999H125.657V44.6486C125.657 42.9917 124.314 41.6486 122.657 41.6486H110.376C108.72 41.6486 107.376 42.9917 107.376 44.6486V75.4999Z" fill="#F3603C"/>
<path d="M135.195 75.5H153.475V110.046C153.475 111.703 152.132 113.046 150.475 113.046H138.195C136.538 113.046 135.195 111.703 135.195 110.046V75.5Z" fill="#242D52"/>
<path d="M135.195 75.5H153.475V102.537C153.475 104.194 152.132 105.537 150.475 105.537H138.195C136.538 105.537 135.195 104.194 135.195 102.537V75.5Z" fill="#F3603C"/>
<path d="M79.9556 75.5H98.2361V128.819C98.2361 130.476 96.8929 131.819 95.2361 131.819H82.9556C81.2987 131.819 79.9556 130.476 79.9556 128.819V75.5Z" fill="#F3603C"/>
<path d="M79.9556 75.5H98.2361V95.0276C98.2361 96.6844 96.8929 98.0276 95.2361 98.0276H82.9556C81.2987 98.0276 79.9556 96.6844 79.9556 95.0276V75.5Z" fill="#242D52"/>
<g filter="url(#filter1_d_0_259)">
<rect x="177" y="6" width="153" height="139" rx="2.4" fill="white"/>
</g>
<path d="M289.387 75.5C289.387 95.4017 273.351 111.431 253.699 111.431C234.046 111.431 218.01 95.4017 218.01 75.5C218.01 55.5983 234.046 39.569 253.699 39.569C273.351 39.569 289.387 55.5983 289.387 75.5Z" stroke="white" stroke-width="24"/>
<path d="M253.699 27.569C266.889 27.569 278.829 32.9516 287.462 41.6507L278.945 50.1037C285.403 56.6115 289.387 65.571 289.387 75.5H301.387C301.387 88.7139 296.067 100.679 287.462 109.349L278.945 100.896C272.465 107.425 263.553 111.431 253.699 111.431V123.431C240.508 123.431 228.568 118.048 219.935 109.349L228.453 100.896C221.994 94.3885 218.01 85.429 218.01 75.5H206.01C206.01 62.2861 211.33 50.3211 219.935 41.6507L228.453 50.1037C234.932 43.5751 243.844 39.569 253.699 39.569V27.569Z" stroke="#F3603C" stroke-width="24" stroke-dasharray="301.2"/>
<path d="M253.699 27.569C266.889 27.569 278.829 32.9516 287.462 41.6507L278.945 50.1037C285.403 56.6115 289.387 65.571 289.387 75.5H301.387C301.387 88.7139 296.067 100.679 287.462 109.349L278.945 100.896C272.465 107.425 263.553 111.431 253.699 111.431V123.431C240.508 123.431 228.568 118.048 219.935 109.349L228.453 100.896C221.994 94.3885 218.01 85.429 218.01 75.5H206.01C206.01 62.2861 211.33 50.3211 219.935 41.6507L228.453 50.1037C234.932 43.5751 243.844 39.569 253.699 39.569V27.569Z" stroke="#242D52" stroke-width="24" stroke-dasharray="204"/>
<g filter="url(#filter2_d_0_259)">
<rect x="95" y="153" width="153" height="139" rx="2.4" fill="white"/>
</g>
<rect x="104.538" y="236.08" width="62.3922" height="46.3333" rx="2.4" fill="#F3603C"/>
<path fill-rule="evenodd" clip-rule="evenodd" d="M140.859 267.098C140.506 267.457 140.077 267.636 139.572 267.636C139.068 267.636 138.638 267.457 138.283 267.098C137.928 266.739 137.75 266.304 137.75 265.793C137.75 265.29 137.929 264.859 138.286 264.5C138.643 264.141 139.072 263.962 139.572 263.962C140.077 263.962 140.506 264.141 140.859 264.5C141.212 264.859 141.388 265.29 141.388 265.793C141.388 266.3 141.212 266.735 140.859 267.098ZM125.315 272.428V264.085H124.046L122.026 265.858V267.262L123.976 265.501V272.428H125.315ZM118.098 271.223V268.912H120.391V267.859H118.098V265.547H117.05V267.859H114.75V268.912H117.05V271.223H118.098ZM129.682 272.305C129.521 272.465 129.328 272.545 129.103 272.545C128.882 272.545 128.689 272.464 128.526 272.302C128.363 272.141 128.282 271.948 128.282 271.726C128.282 271.5 128.363 271.306 128.526 271.144C128.689 270.982 128.882 270.901 129.103 270.901C129.328 270.901 129.521 270.982 129.682 271.144C129.843 271.306 129.924 271.5 129.924 271.726C129.924 271.952 129.843 272.145 129.682 272.305ZM134.154 272.539C135.008 272.539 135.698 272.277 136.224 271.752C136.749 271.228 137.012 270.538 137.012 269.684C137.012 268.834 136.754 268.179 136.238 267.721C135.722 267.263 134.944 267.034 133.904 267.034H132.996L133.176 265.308H136.634V264.091H132.006L131.575 268.18H133.712C135.012 268.18 135.662 268.697 135.662 269.731C135.662 270.199 135.525 270.576 135.251 270.863C134.978 271.15 134.602 271.293 134.125 271.293C133.71 271.293 133.356 271.172 133.063 270.93C132.77 270.689 132.623 270.326 132.623 269.842C132.623 269.745 132.637 269.604 132.664 269.421L131.319 269.503C131.3 269.67 131.29 269.811 131.29 269.924C131.29 270.466 131.424 270.939 131.692 271.343C131.959 271.747 132.307 272.047 132.734 272.244C133.161 272.441 133.634 272.539 134.154 272.539ZM140.213 272.434L144.602 264.073H143.438L139.06 272.434H140.213ZM138.932 266.44C139.11 266.617 139.324 266.706 139.572 266.706C139.828 266.706 140.043 266.617 140.215 266.44C140.388 266.262 140.475 266.047 140.475 265.793C140.475 265.544 140.387 265.331 140.213 265.155C140.038 264.98 139.824 264.892 139.572 264.892C139.324 264.892 139.11 264.979 138.932 265.153C138.753 265.326 138.664 265.54 138.664 265.793C138.664 266.047 138.753 266.262 138.932 266.44ZM144.154 272.528C144.654 272.528 145.08 272.348 145.431 271.989C145.783 271.631 145.958 271.199 145.958 270.696C145.958 270.189 145.782 269.757 145.428 269.4C145.075 269.043 144.65 268.865 144.154 268.865C143.649 268.865 143.218 269.043 142.861 269.4C142.504 269.757 142.326 270.189 142.326 270.696C142.326 271.203 142.503 271.635 142.858 271.992C143.213 272.349 143.645 272.528 144.154 272.528ZM143.507 271.337C143.682 271.514 143.897 271.603 144.154 271.603C144.402 271.603 144.615 271.514 144.794 271.337C144.972 271.16 145.062 270.946 145.062 270.696C145.062 270.447 144.972 270.232 144.791 270.053C144.611 269.873 144.398 269.784 144.154 269.784C143.897 269.784 143.682 269.871 143.507 270.047C143.333 270.222 143.245 270.439 143.245 270.696C143.245 270.946 143.333 271.16 143.507 271.337Z" fill="white"/>
<rect x="176.07" y="236.08" width="62.3922" height="46.3333" rx="2.4" fill="#FAFAFA"/>
<path fill-rule="evenodd" clip-rule="evenodd" d="M208.394 272.428V271.211H204.563L207.003 268.672C207.395 268.262 207.682 267.878 207.864 267.519C208.047 267.16 208.138 266.768 208.138 266.343C208.138 265.602 207.891 265.019 207.398 264.594C206.906 264.169 206.271 263.956 205.495 263.956C204.668 263.956 204.012 264.188 203.527 264.652C203.042 265.116 202.8 265.781 202.8 266.647V267.116L204.133 267.244V266.63C204.133 266.088 204.255 265.693 204.499 265.445C204.744 265.197 205.078 265.074 205.501 265.074C205.904 265.074 206.224 265.186 206.461 265.41C206.698 265.634 206.816 265.947 206.816 266.349C206.816 266.868 206.539 267.414 205.984 267.987L202.666 271.41V272.428H208.394ZM189.078 272.539C189.629 272.539 190.123 272.44 190.562 272.241C191.001 272.038 191.349 271.742 191.607 271.352C191.865 270.962 191.994 270.511 191.994 270C191.994 269.497 191.866 269.058 191.61 268.684C191.354 268.309 191.006 268.024 190.568 267.829C190.878 267.646 191.123 267.407 191.301 267.113C191.48 266.818 191.569 266.489 191.569 266.127C191.569 265.495 191.333 264.977 190.862 264.573C190.39 264.17 189.796 263.968 189.078 263.968C188.348 263.968 187.746 264.169 187.273 264.57C186.8 264.972 186.563 265.491 186.563 266.127C186.563 266.489 186.654 266.818 186.836 267.113C187.019 267.407 187.269 267.646 187.587 267.829C187.141 268.02 186.791 268.303 186.537 268.678C186.282 269.052 186.155 269.493 186.155 270C186.155 270.511 186.284 270.962 186.542 271.352C186.8 271.742 187.15 272.037 187.59 272.238C188.031 272.439 188.526 272.539 189.078 272.539ZM189.078 267.414C188.721 267.414 188.42 267.298 188.175 267.066C187.931 266.834 187.809 266.546 187.809 266.203C187.809 265.867 187.931 265.585 188.175 265.357C188.42 265.129 188.721 265.015 189.078 265.015C189.431 265.015 189.73 265.129 189.974 265.357C190.219 265.585 190.341 265.867 190.341 266.203C190.341 266.542 190.218 266.829 189.971 267.063C189.725 267.297 189.427 267.414 189.078 267.414ZM187.948 270.919C188.247 271.188 188.624 271.322 189.078 271.322C189.524 271.322 189.896 271.187 190.195 270.916C190.494 270.645 190.644 270.287 190.644 269.842C190.644 269.401 190.494 269.048 190.195 268.783C189.896 268.518 189.524 268.385 189.078 268.385C188.624 268.385 188.247 268.518 187.948 268.783C187.649 269.048 187.5 269.401 187.5 269.842C187.5 270.291 187.649 270.649 187.948 270.919ZM195.596 272.539C196.147 272.539 196.642 272.44 197.08 272.241C197.519 272.038 197.867 271.742 198.125 271.352C198.383 270.962 198.512 270.511 198.512 270C198.512 269.497 198.384 269.058 198.128 268.684C197.872 268.309 197.525 268.024 197.086 267.829C197.397 267.646 197.641 267.407 197.82 267.113C197.998 266.818 198.087 266.489 198.087 266.127C198.087 265.495 197.852 264.977 197.38 264.573C196.909 264.17 196.314 263.968 195.596 263.968C194.866 263.968 194.265 264.169 193.791 264.57C193.318 264.972 193.081 265.491 193.081 266.127C193.081 266.489 193.172 266.818 193.355 267.113C193.537 267.407 193.787 267.646 194.106 267.829C193.659 268.02 193.309 268.303 193.055 268.678C192.801 269.052 192.674 269.493 192.674 270C192.674 270.511 192.803 270.962 193.061 271.352C193.319 271.742 193.668 272.037 194.109 272.238C194.549 272.439 195.045 272.539 195.596 272.539ZM194.694 267.066C194.938 267.298 195.239 267.414 195.596 267.414C195.945 267.414 196.243 267.297 196.489 267.063C196.736 266.829 196.859 266.542 196.859 266.203C196.859 265.867 196.737 265.585 196.492 265.357C196.248 265.129 195.949 265.015 195.596 265.015C195.239 265.015 194.938 265.129 194.694 265.357C194.449 265.585 194.327 265.867 194.327 266.203C194.327 266.546 194.449 266.834 194.694 267.066ZM195.596 271.322C195.142 271.322 194.765 271.188 194.467 270.919C194.168 270.649 194.018 270.291 194.018 269.842C194.018 269.401 194.168 269.048 194.467 268.783C194.765 268.518 195.142 268.385 195.596 268.385C196.042 268.385 196.415 268.518 196.714 268.783C197.012 269.048 197.162 269.401 197.162 269.842C197.162 270.287 197.012 270.645 196.714 270.916C196.415 271.187 196.042 271.322 195.596 271.322ZM201.139 272.305C200.978 272.465 200.785 272.545 200.56 272.545C200.339 272.545 200.147 272.464 199.984 272.302C199.821 272.141 199.739 271.948 199.739 271.726C199.739 271.5 199.821 271.306 199.984 271.144C200.147 270.982 200.339 270.901 200.56 270.901C200.785 270.901 200.978 270.982 201.139 271.144C201.3 271.306 201.381 271.5 201.381 271.726C201.381 271.952 201.3 272.145 201.139 272.305ZM214.103 270.796V272.428H212.764V270.796H208.864V269.579L212.06 264.085H214.103V269.585H215.244V270.796H214.103ZM212.764 269.585H210.168L212.764 264.951V269.585ZM218.834 267.098C218.481 267.457 218.052 267.636 217.548 267.636C217.043 267.636 216.613 267.457 216.258 267.098C215.903 266.739 215.726 266.304 215.726 265.793C215.726 265.29 215.904 264.859 216.261 264.5C216.618 264.141 217.047 263.962 217.548 263.962C218.052 263.962 218.481 264.141 218.834 264.5C219.187 264.859 219.364 265.29 219.364 265.793C219.364 266.3 219.187 266.735 218.834 267.098ZM218.188 272.434L222.577 264.073H221.413L217.035 272.434H218.188ZM216.907 266.44C217.086 266.617 217.299 266.706 217.548 266.706C217.804 266.706 218.018 266.617 218.191 266.44C218.364 266.262 218.45 266.047 218.45 265.793C218.45 265.544 218.363 265.331 218.188 265.155C218.013 264.98 217.8 264.892 217.548 264.892C217.299 264.892 217.086 264.979 216.907 265.153C216.729 265.326 216.64 265.54 216.64 265.793C216.64 266.047 216.729 266.262 216.907 266.44ZM222.129 272.528C222.63 272.528 223.056 272.348 223.407 271.989C223.758 271.63 223.934 271.199 223.934 270.696C223.934 270.189 223.757 269.757 223.404 269.4C223.051 269.043 222.626 268.865 222.129 268.865C221.625 268.865 221.194 269.043 220.837 269.4C220.48 269.757 220.301 270.189 220.301 270.696C220.301 271.203 220.479 271.635 220.834 271.992C221.189 272.349 221.621 272.528 222.129 272.528ZM221.483 271.337C221.658 271.514 221.873 271.603 222.129 271.603C222.378 271.603 222.591 271.514 222.769 271.337C222.948 271.159 223.037 270.946 223.037 270.696C223.037 270.447 222.947 270.232 222.767 270.053C222.586 269.873 222.374 269.784 222.129 269.784C221.873 269.784 221.658 269.871 221.483 270.047C221.308 270.222 221.221 270.439 221.221 270.696C221.221 270.946 221.308 271.159 221.483 271.337Z" fill="#1E272E"/>
<rect x="104.538" y="162.586" width="133.925" height="63.908" rx="2.4" fill="#FAFAFA"/>
<path fill-rule="evenodd" clip-rule="evenodd" d="M184.229 201.143C183.476 201.909 182.561 202.292 181.485 202.292C180.408 202.292 179.492 201.909 178.734 201.143C177.976 200.378 177.598 199.45 177.598 198.36C177.598 197.286 177.978 196.367 178.74 195.601C179.502 194.836 180.417 194.453 181.485 194.453C182.561 194.453 183.476 194.836 184.229 195.601C184.983 196.367 185.359 197.286 185.359 198.36C185.359 199.441 184.983 200.369 184.229 201.143ZM124.644 212.115C123.708 212.539 122.653 212.751 121.477 212.751C120.301 212.751 119.244 212.537 118.304 212.109C117.364 211.68 116.619 211.05 116.069 210.218C115.518 209.385 115.243 208.424 115.243 207.334C115.243 206.253 115.514 205.312 116.056 204.513C116.598 203.714 117.346 203.111 118.298 202.703C117.619 202.312 117.085 201.803 116.696 201.174C116.307 200.546 116.112 199.845 116.112 199.071C116.112 197.715 116.617 196.608 117.627 195.751C118.637 194.894 119.92 194.465 121.477 194.465C123.009 194.465 124.277 194.896 125.283 195.757C126.289 196.618 126.792 197.723 126.792 199.071C126.792 199.845 126.602 200.546 126.221 201.174C125.84 201.803 125.318 202.312 124.656 202.703C125.592 203.12 126.333 203.727 126.879 204.526C127.426 205.325 127.699 206.261 127.699 207.334C127.699 208.424 127.423 209.385 126.873 210.218C126.322 211.05 125.579 211.682 124.644 212.115ZM119.552 201.075C120.074 201.57 120.715 201.817 121.477 201.817C122.222 201.817 122.857 201.568 123.383 201.068C123.909 200.569 124.172 199.957 124.172 199.233C124.172 198.518 123.911 197.917 123.389 197.43C122.868 196.943 122.23 196.7 121.477 196.7C120.715 196.7 120.074 196.943 119.552 197.43C119.03 197.917 118.77 198.518 118.77 199.233C118.77 199.966 119.03 200.579 119.552 201.075ZM121.477 210.155C120.508 210.155 119.705 209.868 119.068 209.294C118.43 208.72 118.111 207.954 118.111 206.997C118.111 206.057 118.43 205.304 119.068 204.738C119.705 204.172 120.508 203.889 121.477 203.889C122.429 203.889 123.224 204.172 123.861 204.738C124.499 205.304 124.818 206.057 124.818 206.997C124.818 207.946 124.499 208.709 123.861 209.288C123.224 209.866 122.429 210.155 121.477 210.155ZM139.993 204.9L134.268 212.514H130.952L135.672 206.411C135.316 206.486 134.943 206.523 134.554 206.523C133.569 206.523 132.65 206.29 131.797 205.824C130.944 205.358 130.247 204.674 129.704 203.771C129.162 202.868 128.887 201.834 128.879 200.669C128.87 199.479 129.154 198.408 129.729 197.455C130.305 196.502 131.075 195.77 132.039 195.258C133.004 194.746 134.061 194.49 135.212 194.49C136.388 194.49 137.458 194.748 138.422 195.264C139.387 195.78 140.151 196.506 140.714 197.442C141.277 198.378 141.558 199.429 141.558 200.594C141.558 202.05 141.037 203.486 139.993 204.9ZM135.287 204.376C134.227 204.376 133.36 204.041 132.685 203.371C132.01 202.701 131.669 201.821 131.66 200.731C131.652 199.658 131.992 198.786 132.679 198.116C133.366 197.446 134.235 197.111 135.287 197.111C136.355 197.111 137.216 197.436 137.87 198.085C138.524 198.734 138.851 199.608 138.851 200.706C138.851 201.746 138.518 202.618 137.851 203.321C137.185 204.024 136.33 204.376 135.287 204.376ZM146.917 212.252C146.573 212.593 146.161 212.764 145.681 212.764C145.209 212.764 144.799 212.591 144.452 212.246C144.104 211.901 143.93 211.491 143.93 211.016C143.93 210.534 144.104 210.12 144.452 209.775C144.799 209.429 145.209 209.257 145.681 209.257C146.161 209.257 146.573 209.429 146.917 209.775C147.26 210.12 147.432 210.534 147.432 211.016C147.432 211.499 147.26 211.911 146.917 212.252ZM154.052 212.514L162.385 196.999V194.715H150.077V197.299H159.168L150.798 212.514H154.052ZM174.282 209.032V212.514H171.425V209.032H163.105V206.436L169.923 194.715H174.282V206.448H176.716V209.032H174.282ZM171.425 206.448H165.887L171.425 196.562V206.448ZM182.851 212.527L192.215 194.69H189.731L180.392 212.527H182.851ZM180.119 199.739C180.499 200.118 180.955 200.307 181.485 200.307C182.031 200.307 182.489 200.118 182.857 199.739C183.225 199.36 183.41 198.901 183.41 198.36C183.41 197.827 183.223 197.374 182.851 196.999C182.478 196.625 182.023 196.437 181.485 196.437C180.955 196.437 180.499 196.623 180.119 196.993C179.738 197.363 179.547 197.819 179.547 198.36C179.547 198.901 179.738 199.36 180.119 199.739ZM191.258 212.727C192.326 212.727 193.235 212.344 193.984 211.578C194.734 210.813 195.108 209.893 195.108 208.82C195.108 207.738 194.731 206.816 193.978 206.055C193.225 205.293 192.318 204.913 191.258 204.913C190.182 204.913 189.263 205.293 188.501 206.055C187.74 206.816 187.359 207.738 187.359 208.82C187.359 209.901 187.738 210.823 188.495 211.584C189.253 212.346 190.174 212.727 191.258 212.727ZM189.88 210.186C190.252 210.565 190.712 210.754 191.258 210.754C191.788 210.754 192.244 210.565 192.624 210.186C193.005 209.808 193.196 209.352 193.196 208.82C193.196 208.287 193.003 207.829 192.618 207.447C192.233 207.064 191.78 206.872 191.258 206.872C190.712 206.872 190.252 207.06 189.88 207.434C189.507 207.809 189.321 208.27 189.321 208.82C189.321 209.352 189.507 209.808 189.88 210.186Z" fill="#343A40"/>
<defs>
<filter id="filter0_d_0_259" x="0" y="0" width="177" height="163" filterUnits="userSpaceOnUse" color-interpolation-filters="sRGB">
<feFlood flood-opacity="0" result="BackgroundImageFix"/>
<feColorMatrix in="SourceAlpha" type="matrix" values="0 0 0 0 0 0 0 0 0 0 0 0 0 0 0 0 0 0 127 0" result="hardAlpha"/>
<feOffset dy="6"/>
<feGaussianBlur stdDeviation="6"/>
<feColorMatrix type="matrix" values="0 0 0 0 0.311766 0 0 0 0 0.336514 0 0 0 0 0.386011 0 0 0 0.03 0"/>
<feBlend mode="normal" in2="BackgroundImageFix" result="effect1_dropShadow_0_259"/>
<feBlend mode="normal" in="SourceGraphic" in2="effect1_dropShadow_0_259" result="shape"/>
</filter>
<filter id="filter1_d_0_259" x="165" y="0" width="177" height="163" filterUnits="userSpaceOnUse" color-interpolation-filters="sRGB">
<feFlood flood-opacity="0" result="BackgroundImageFix"/>
<feColorMatrix in="SourceAlpha" type="matrix" values="0 0 0 0 0 0 0 0 0 0 0 0 0 0 0 0 0 0 127 0" result="hardAlpha"/>
<feOffset dy="6"/>
<feGaussianBlur stdDeviation="6"/>
<feColorMatrix type="matrix" values="0 0 0 0 0.311766 0 0 0 0 0.336514 0 0 0 0 0.386011 0 0 0 0.03 0"/>
<feBlend mode="normal" in2="BackgroundImageFix" result="effect1_dropShadow_0_259"/>
<feBlend mode="normal" in="SourceGraphic" in2="effect1_dropShadow_0_259" result="shape"/>
</filter>
<filter id="filter2_d_0_259" x="83" y="147" width="177" height="163" filterUnits="userSpaceOnUse" color-interpolation-filters="sRGB">
<feFlood flood-opacity="0" result="BackgroundImageFix"/>
<feColorMatrix in="SourceAlpha" type="matrix" values="0 0 0 0 0 0 0 0 0 0 0 0 0 0 0 0 0 0 127 0" result="hardAlpha"/>
<feOffset dy="6"/>
<feGaussianBlur stdDeviation="6"/>
<feColorMatrix type="matrix" values="0 0 0 0 0.311766 0 0 0 0 0.336514 0 0 0 0 0.386011 0 0 0 0.03 0"/>
<feBlend mode="normal" in2="BackgroundImageFix" result="effect1_dropShadow_0_259"/>
<feBlend mode="normal" in="SourceGraphic" in2="effect1_dropShadow_0_259" result="shape"/>
</filter>
</defs>
</svg>
