<svg width="16" height="17" viewBox="0 0 16 17" fill="none" xmlns="http://www.w3.org/2000/svg">
<path fill-rule="evenodd" clip-rule="evenodd" d="M5.57143 2.85714C5.57143 4.4351 4.32422 5.71429 2.78571 5.71429C1.24721 5.71429 0 4.4351 0 2.85714C0 1.27919 1.24721 0 2.78571 0C4.32422 0 5.57143 1.27919 5.57143 2.85714ZM5.57143 13.1429C5.57143 14.7208 4.32422 16 2.78571 16C1.24721 16 0 14.7208 0 13.1429C0 11.5649 1.24721 10.2857 2.78571 10.2857C4.32422 10.2857 5.57143 11.5649 5.57143 13.1429ZM12.8143 5.71429C14.3528 5.71429 15.6 4.4351 15.6 2.85714C15.6 1.27919 14.3528 0 12.8143 0C11.2758 0 10.0286 1.27919 10.0286 2.85714C10.0286 4.4351 11.2758 5.71429 12.8143 5.71429Z" fill="#F3603C"/>
<ellipse opacity="0.5" cx="12.8143" cy="13.2572" rx="2.78571" ry="2.85714" fill="#F3603C"/>
</svg>
