<svg xmlns="http://www.w3.org/2000/svg" width="158" height="26" fill="none"><path fill="#fff" fill-rule="evenodd" d="M128.231 25.72c1.3 0 2.462-.153 3.487-.458 1.025-.305 1.886-.729 2.584-1.272a6.921 6.921 0 0 0 1.734-1.999 8.83 8.83 0 0 0 .993-2.58c.202-.933.304-1.954.304-3.065V.286h-4.095V2.17h-.072a7.637 7.637 0 0 0-2.548-1.613A8.239 8.239 0 0 0 127.624 0c-1.633 0-3.1.388-4.399 1.165s-2.309 1.855-3.031 3.235c-.721 1.38-1.081 2.93-1.081 4.651 0 1.745.378 3.292 1.135 4.642.757 1.35 1.797 2.387 3.12 3.11 1.323.723 2.813 1.084 4.47 1.084 2.217 0 4.023-.729 5.418-2.187h.071v1.9c0 1.267-.465 2.318-1.394 3.155-.93.836-2.241 1.254-3.934 1.254-1.156 0-2.172-.143-3.049-.43-.876-.287-1.886-.735-3.03-1.344l-.966 3.62c1.002.598 2.128 1.058 3.38 1.38a15.55 15.55 0 0 0 3.897.484ZM43.039 9.265v8.944h-4.095V8.872c0-3.417-1.186-5.126-3.558-5.126-1.252 0-2.28.493-3.085 1.478-.804.986-1.206 2.333-1.206 4.042v8.926H27V.287h4.095V2.76h.053A7.553 7.553 0 0 1 33.696.726a6.855 6.855 0 0 1 3.03-.708c2.492 0 4.268.992 5.33 2.975h.07A7.399 7.399 0 0 1 44.899.78c1.097-.508 2.307-.762 3.63-.762 2.014 0 3.564.648 4.649 1.945 1.084 1.296 1.627 3.253 1.627 5.87V18.21h-4.095V8.872c0-3.417-1.168-5.126-3.504-5.126-1.192 0-2.185.493-2.977 1.478-.793.986-1.19 2.333-1.19 4.042Zm28.53 6.524c-1.359 1.792-3.254 2.688-5.686 2.688a9.008 9.008 0 0 1-3.441-.654 7.955 7.955 0 0 1-2.745-1.837c-.763-.789-1.365-1.756-1.806-2.903-.441-1.147-.662-2.402-.662-3.764 0-1.326.22-2.57.662-3.728.441-1.16 1.043-2.145 1.806-2.957A8.265 8.265 0 0 1 62.432.717a8.397 8.397 0 0 1 3.416-.7c2.324 0 4.166.807 5.525 2.42h.071V.288h4.095v17.905h-3.916V15.79h-.054Zm-5.042-1.04c-1.514 0-2.748-.504-3.701-1.514-.954-1.01-1.43-2.31-1.43-3.898 0-1.685.491-3.038 1.475-4.06.983-1.021 2.208-1.532 3.674-1.532 1.454 0 2.661.535 3.62 1.604.96 1.07 1.44 2.399 1.44 3.988s-.492 2.888-1.475 3.898c-.983 1.01-2.184 1.514-3.603 1.514ZM95.88 7.654V18.21h-4.094v-9.5c0-.932-.084-1.72-.25-2.365-.167-.646-.424-1.156-.77-1.533a3.033 3.033 0 0 0-1.206-.815c-.46-.167-1.01-.251-1.654-.251-1.407 0-2.53.478-3.37 1.434-.841.956-1.261 2.294-1.261 4.014v8.998H79.18V.287h4.095v2.455h.053A7.532 7.532 0 0 1 86.01.717a7.978 7.978 0 0 1 3.308-.7c2.05 0 3.657.625 4.819 1.874 1.162 1.248 1.743 3.17 1.743 5.762Zm11.062 10.825c2.432 0 4.327-.896 5.686-2.688h.054v2.402h3.915V.287h-4.094v2.15h-.072c-1.358-1.613-3.2-2.42-5.525-2.42a8.4 8.4 0 0 0-6.15 2.618c-.763.812-1.365 1.798-1.806 2.957-.441 1.159-.662 2.402-.662 3.728 0 1.362.22 2.617.662 3.764.44 1.147 1.043 2.114 1.806 2.903a7.952 7.952 0 0 0 2.744 1.837 9.008 9.008 0 0 0 3.442.654Zm-3.057-5.242c.953 1.01 2.187 1.514 3.701 1.514 1.418 0 2.619-.504 3.603-1.514.983-1.01 1.475-2.31 1.475-3.898 0-1.59-.48-2.919-1.44-3.988-.959-1.07-2.166-1.604-3.62-1.604-1.466 0-2.691.51-3.675 1.532-.983 1.022-1.475 2.375-1.475 4.06 0 1.589.477 2.888 1.431 3.898Zm20.833-.538c.96.938 2.178 1.407 3.657 1.407 1.49 0 2.702-.493 3.638-1.478.936-.986 1.404-2.238 1.404-3.755 0-1.506-.48-2.73-1.44-3.674-.959-.944-2.16-1.416-3.602-1.416-1.514 0-2.742.478-3.684 1.434-.941.955-1.412 2.192-1.412 3.71 0 1.577.479 2.834 1.439 3.772Zm24.32 5.78c1.669 0 3.138-.304 4.408-.914 1.269-.609 2.309-1.433 3.12-2.473l-2.861-2.455c-1.121 1.41-2.605 2.115-4.452 2.115-1.312 0-2.423-.365-3.335-1.094-.912-.729-1.499-1.726-1.761-2.993h13.017c.071-.43.107-.974.107-1.63 0-1.733-.352-3.28-1.055-4.643a7.796 7.796 0 0 0-3.04-3.208c-1.323-.777-2.849-1.165-4.577-1.165a8.864 8.864 0 0 0-3.451.672 8.2 8.2 0 0 0-2.771 1.873c-.775.8-1.383 1.774-1.824 2.921-.441 1.147-.662 2.396-.662 3.746 0 1.828.4 3.45 1.198 4.866.799 1.416 1.89 2.5 3.272 3.253 1.383.753 2.939 1.13 4.667 1.13Zm-4.81-11.13h8.94c-.262-1.11-.766-1.99-1.511-2.634-.745-.646-1.689-.968-2.834-.968-1.132 0-2.109.314-2.932.94-.822.628-1.377 1.515-1.663 2.662Z" clip-rule="evenodd"/><g fill="#F3603C"><path fill-rule="evenodd" d="M5.92 3.025c0 1.671-1.326 3.025-2.96 3.025C1.325 6.05 0 4.696 0 3.025 0 1.355 1.325 0 2.96 0c1.634 0 2.96 1.354 2.96 3.025Zm0 10.891c0 1.67-1.326 3.025-2.96 3.025-1.635 0-2.96-1.354-2.96-3.025 0-1.67 1.325-3.025 2.96-3.025 1.634 0 2.96 1.354 2.96 3.025Zm7.695-7.866c1.635 0 2.96-1.354 2.96-3.025 0-1.67-1.325-3.025-2.96-3.025s-2.96 1.354-2.96 3.025c0 1.671 1.325 3.025 2.96 3.025Z" clip-rule="evenodd"/><ellipse cx="13.615" cy="14.037" opacity=".5" rx="2.96" ry="3.025"/></g></svg>