<svg xmlns="http://www.w3.org/2000/svg" width="110" height="18" fill="none"><path fill="#242D52" fill-rule="evenodd" d="M89.205 17.806c.901 0 1.707-.106 2.418-.317.711-.21 1.308-.504 1.792-.88a4.79 4.79 0 0 0 1.203-1.384 6.098 6.098 0 0 0 .688-1.787 9.98 9.98 0 0 0 .21-2.122V.2h-2.839V1.5h-.05A5.3 5.3 0 0 0 90.861.385 5.727 5.727 0 0 0 88.782 0c-1.132 0-2.149.269-3.05.807a5.547 5.547 0 0 0-2.102 2.24c-.5.955-.75 2.028-.75 3.22 0 1.207.263 2.278.787 3.213a5.42 5.42 0 0 0 2.164 2.153c.918.5 1.951.75 3.1.75 1.538 0 2.79-.504 3.757-1.513h.05v1.315c0 .877-.322 1.604-.967 2.184-.645.579-1.554.868-2.728.868-.802 0-1.507-.1-2.114-.298-.608-.198-1.309-.508-2.102-.93l-.67 2.506a8.876 8.876 0 0 0 2.344.956c.868.223 1.769.335 2.703.335ZM30.123 6.415v6.192h-2.84V6.142c0-2.366-.822-3.549-2.467-3.549-.868 0-1.581.342-2.14 1.024-.557.682-.836 1.615-.836 2.798v6.18H19V.198h2.84V1.91h.037A5.237 5.237 0 0 1 23.644.503a4.761 4.761 0 0 1 2.102-.49c1.727 0 2.96.686 3.695 2.06h.05A5.129 5.129 0 0 1 31.413.54c.76-.352 1.6-.528 2.517-.528 1.397 0 2.471.45 3.224 1.347.752.897 1.128 2.252 1.128 4.063v7.185h-2.84V6.142c0-2.366-.81-3.549-2.43-3.549-.827 0-1.515.342-2.064 1.024-.55.682-.825 1.615-.825 2.798Zm19.786 4.516c-.942 1.241-2.257 1.862-3.943 1.862-.851 0-1.647-.151-2.387-.453a5.517 5.517 0 0 1-1.903-1.272c-.53-.546-.947-1.216-1.253-2.01-.306-.794-.459-1.663-.459-2.606 0-.918.153-1.778.46-2.58.305-.803.723-1.486 1.252-2.048A5.832 5.832 0 0 1 45.942.012c1.611 0 2.888.559 3.83 1.675h.05V.2h2.84v12.395h-2.716v-1.662h-.037Zm-3.497-.72c-1.05 0-1.905-.349-2.566-1.048-.662-.699-.992-1.598-.992-2.698 0-1.167.34-2.104 1.023-2.81.682-.708 1.531-1.062 2.548-1.062 1.008 0 1.845.37 2.51 1.11.666.741.999 1.661.999 2.762 0 1.1-.341 2-1.023 2.698-.682.7-1.515 1.049-2.499 1.049ZM66.77 5.299v7.309h-2.84V6.03c0-.645-.057-1.19-.173-1.638-.116-.446-.294-.8-.533-1.06a2.103 2.103 0 0 0-.837-.565c-.319-.116-.7-.174-1.147-.174-.976 0-1.755.331-2.338.993-.582.662-.874 1.588-.874 2.78v6.228h-2.84V.2h2.84v1.7h.037a5.224 5.224 0 0 1 1.86-1.403 5.54 5.54 0 0 1 2.294-.484c1.422 0 2.536.433 3.342 1.297.806.864 1.21 2.194 1.21 3.99Zm7.672 7.495c1.686 0 3-.62 3.943-1.861h.037v1.662h2.716V.2h-2.84v1.488h-.05C77.306.571 76.028.012 74.416.012a5.832 5.832 0 0 0-4.266 1.812c-.529.562-.946 1.245-1.252 2.047a7.184 7.184 0 0 0-.459 2.581c0 .943.153 1.812.459 2.606.306.794.723 1.464 1.252 2.01.53.546 1.164.97 1.904 1.272.74.302 1.535.453 2.387.453Zm-2.12-3.63c.66.7 1.516 1.049 2.566 1.049.984 0 1.817-.35 2.499-1.049.682-.699 1.023-1.598 1.023-2.698 0-1.1-.333-2.02-.999-2.761-.665-.74-1.502-1.11-2.51-1.11-1.017 0-1.867.353-2.549 1.06-.682.707-1.023 1.644-1.023 2.81 0 1.1.331 2 .992 2.7Zm14.448-.372c.665.65 1.51.974 2.535.974 1.034 0 1.875-.341 2.524-1.024.649-.682.973-1.548.973-2.599 0-1.042-.333-1.89-.998-2.544-.666-.653-1.498-.98-2.499-.98-1.05 0-1.901.331-2.554.993-.653.662-.98 1.518-.98 2.568 0 1.092.333 1.963.999 2.612Zm16.866 4.002c1.157 0 2.176-.211 3.056-.633.881-.422 1.602-.993 2.164-1.712l-1.984-1.7c-.777.976-1.806 1.464-3.088 1.464-.909 0-1.68-.252-2.312-.757-.633-.505-1.04-1.195-1.222-2.072h9.028a7.15 7.15 0 0 0 .074-1.13c0-1.199-.244-2.27-.732-3.213a5.394 5.394 0 0 0-2.108-2.221c-.917-.538-1.975-.807-3.174-.807-.851 0-1.649.156-2.393.466a5.696 5.696 0 0 0-1.922 1.296c-.538.555-.96 1.229-1.265 2.023a7.155 7.155 0 0 0-.459 2.593c0 1.266.277 2.389.831 3.369a5.69 5.69 0 0 0 2.269 2.252c.959.521 2.038.782 3.237.782Zm-3.336-7.706h6.2c-.182-.769-.531-1.377-1.048-1.824-.516-.446-1.172-.67-1.965-.67-.786 0-1.463.217-2.034.652-.57.434-.955 1.048-1.153 1.842Z" clip-rule="evenodd"/><path fill="#F3603C" fill-rule="evenodd" d="M4.179 2.185c0 1.207-.936 2.185-2.09 2.185S0 3.392 0 2.185.935 0 2.09 0c1.153 0 2.089.978 2.089 2.185Zm0 7.865c0 1.207-.936 2.185-2.09 2.185S0 11.257 0 10.05c0-1.206.935-2.184 2.09-2.184 1.153 0 2.089.978 2.089 2.184ZM9.61 4.37c1.154 0 2.089-.978 2.089-2.185S10.765 0 9.61 0C8.458 0 7.522.978 7.522 2.185s.936 2.185 2.09 2.185Z" clip-rule="evenodd"/><ellipse cx="9.611" cy="10.138" fill="#F3603C" opacity=".5" rx="2.089" ry="2.185"/></svg>